Coordinates
version=1
nRows=14
nColumns=36
inDegrees=yes

Units are S.I. units (second, meters, Newtons, ...)
If the header above contains a line with 'inDegrees', this indicates whether rotational values are in degrees (yes) or radians (no).

endheader
time	pelvis_tilt	pelvis_list	pelvis_rotation	pelvis_tx	pelvis_ty	pelvis_tz	hip_flexion_r	hip_adduction_r	hip_rotation_r	knee_angle_r	knee_angle_r_beta	ankle_angle_r	subtalar_angle_r	mtp_angle_r	hip_flexion_l	hip_adduction_l	hip_rotation_l	knee_angle_l	knee_angle_l_beta	ankle_angle_l	subtalar_angle_l	mtp_angle_l	lumbar_extension	lumbar_bending	lumbar_rotation	arm_flex_r	arm_add_r	arm_rot_r	elbow_flex_r	pro_sup_r	arm_flex_l	arm_add_l	arm_rot_l	elbow_flex_l	pro_sup_l
      0.00000000	     -4.94792200	     -4.44863544	      0.96488343	      0.14877036	      0.95940592	      0.08814741	     13.46520433	      1.41190319	     -0.17866966	     13.86028486	      0.24190761	      9.07296528	    -11.33763464	     -6.51608026	      9.80853255	     -1.30506717	     -5.69040673	      6.77668881	      0.11827553	     12.07537586	     -1.74348687	     -6.51608026	     14.52693888	      5.40238401	      3.81754653	     36.01521269	     12.67322144	     62.86722023	    120.06550685	     98.56596516	     25.98947737	      6.19382142	     45.82015461	    112.62158087	    100.89301094
      0.01666670	     -2.98933509	     -3.04783721	      1.36890286	      0.14928121	      0.96013705	      0.08815872	     11.37449208	      0.00890273	     -0.16928627	     13.15162742	      0.22953920	     10.69372946	     -9.12738508	     -6.73602946	      6.91549684	      0.31823954	     -7.43053792	      5.38537954	      0.09399260	     12.10817941	     -1.18040595	     -6.73602946	     12.38115407	      3.66350323	      3.92797847	     38.65435678	     12.81705314	     64.41844612	    122.26328065	    101.13656332	     27.04257222	      5.44211349	     47.38425158	    114.46141737	     95.02913076
      0.03333330	     -3.58823340	     -1.96321383	      1.05023924	      0.14939272	      0.95984743	      0.08861356	     11.89010110	     -1.11780485	     -0.23545076	     12.71927340	      0.22199320	     11.08061601	     -9.08105634	     -6.78925929	      7.41283026	      1.57006570	     -8.82381217	      5.10297471	      0.08906371	     12.18883656	     -0.11812080	     -6.78925929	     12.86503975	      2.17097820	      4.64639464	     38.83722149	     13.06165501	     65.48479175	    123.88846861	    100.83076954	     26.95434329	      4.88814321	     48.08906680	    115.71520777	     93.77417125
      0.05000000	     -3.30705800	     -1.49108757	      0.65581229	      0.14887109	      0.96130466	      0.08873550	     11.77530427	     -1.64839342	      0.17269150	     12.87577863	      0.22472473	     11.38074655	     -9.00786731	     -7.00776390	      6.65826709	      2.11477046	     -9.76452327	      4.27722988	      0.07465174	     12.21046470	      1.59523675	     -7.00776390	     12.32661907	      1.61835270	      5.41121607	     38.92208123	     13.05832900	     66.09849877	    124.23295690	    103.45764547	     27.25808264	      4.82917084	     49.12134335	    115.22390093	     89.61764633
      0.06666670	     -3.32334911	     -1.24355941	      0.47983736	      0.14849049	      0.96128369	      0.08873128	     11.88717394	     -1.92661349	      0.42948981	     13.00369793	      0.22695734	     11.46496666	     -9.05198423	     -7.06342122	      6.41596934	      2.43505428	     -9.89646734	      3.68451627	      0.06430694	     11.90518413	      2.03072657	     -7.06342122	     12.23906093	      1.40854475	      5.60286396	     38.77453125	     13.00740304	     66.82620268	    124.24635996	    101.67132028	     27.22382589	      4.81313456	     49.64178128	    115.05982753	     87.95665258
      0.08333330	     -3.35682002	     -1.05871610	      0.34417881	      0.14886286	      0.95898466	      0.08919282	     11.98039459	     -2.08330642	      0.68735206	     13.14451434	      0.22941505	     11.64993168	     -9.03555455	     -7.10607835	      6.31317554	      2.62264152	    -10.09992868	      3.32552268	      0.05804132	     11.90626940	      2.64933164	     -7.10607835	     12.34424456	      1.27420787	      5.88860077	     38.76001170	     12.87139116	     66.87936813	    123.89412857	    101.55124764	     27.35099972	      4.96018800	     50.26149746	    114.92368849	     86.52649454
      0.10000000	     -3.89266047	     -0.97778981	      0.31314692	      0.14899571	      0.95810687	      0.08910699	     12.70558892	     -2.20746279	      0.74238639	     13.45033865	      0.23475269	     11.95309301	     -8.90562518	     -7.14049541	      6.87362163	      2.68936402	     -9.94943458	      3.17598392	      0.05543138	     11.76658080	      2.68287687	     -7.14049541	     13.25072461	      1.29866332	      5.94009254	     38.54687155	     12.75518737	     66.71601175	    123.26177924	     99.73700702	     27.05048937	      5.04403343	     50.28099727	    114.68263659	     85.21363396
      0.11666670	     -3.68600264	     -0.92014170	      0.16604814	      0.14865136	      0.95953670	      0.08909193	     12.52897968	     -2.19294202	      1.21426557	     13.50444531	      0.23569703	     11.62173436	     -9.43312488	     -7.27015493	      6.56766283	      2.71148015	    -10.27719087	      2.95398943	      0.05155684	     11.68079096	      3.26423642	     -7.27015493	     12.76406000	      1.19935170	      6.27099983	     38.71387118	     12.58263374	     66.38156197	    123.48773493	    101.74923865	     27.33365425	      5.16855095	     50.75797401	    115.08194026	     83.32472492
      0.13333330	     -3.77598496	     -0.90839181	      0.20819378	      0.14841224	      0.95938945	      0.08882485	     12.68322902	     -2.22051309	      1.22190982	     13.61402074	      0.23760949	     11.54365621	     -9.55391054	     -7.30319900	      6.63571209	      2.72409028	     -9.90985287	      2.82836887	      0.04936435	     11.35834524	      2.94323722	     -7.30319900	     12.76523139	      1.19291803	      6.16649438	     38.77847639	     12.50023659	     66.29014828	    123.56130979	     99.63129683	     27.29844771	      5.14918289	     50.83768751	    115.41552377	     82.06561469
      0.15000000	     -3.83200428	     -0.90934029	      0.10501529	      0.14802526	      0.95989645	      0.08899732	     12.77452389	     -2.18606825	      1.37104964	     13.62966845	      0.23788259	     11.34204245	     -9.59992914	     -7.36446410	      6.64220740	      2.70092181	    -10.12153148	      2.66633705	      0.04653636	     11.23471112	      3.34150396	     -7.36446410	     12.71441137	      1.21439546	      6.27036495	     38.91710290	     12.47601488	     66.20875499	    123.44007828	    101.45382753	     27.32884049	      5.15132750	     51.06711585	    115.56170149	     82.29064909
      0.16666670	     -3.90437854	     -0.90887839	      0.01780028	      0.14819641	      0.95870716	      0.08921828	     12.90059431	     -2.14686254	      1.55344734	     13.70655509	      0.23922452	     11.06363804	     -9.86868269	     -7.42081722	      6.67407602	      2.68708600	    -10.35519378	      2.54179690	      0.04436272	     11.16256192	      3.68823401	     -7.42081722	     12.68088609	      1.23897773	      6.40077125	     39.04408909	     12.47340442	     66.15247844	    123.53993503	    100.86993683	     27.40594109	      5.17099907	     51.27446937	    115.75555095	     81.79504048
      0.18333330	     -3.92128868	     -0.95478938	      0.05076563	      0.14777556	      0.95821305	      0.08858551	     12.94355424	     -2.12179643	      1.58301740	     13.74875614	      0.23996106	     10.82856403	    -10.15895923	     -7.44084259	      6.66293781	      2.66230257	    -10.11540213	      2.45749254	      0.04289134	     10.97575640	      3.41914243	     -7.44084259	     12.58541598	      1.31293979	      6.31863889	     39.24808219	     12.44126262	     66.31947223	    123.71261174	     96.40053372	     27.48661386	      5.21103664	     51.49426861	    116.18016331	     78.95683111
      0.20000000	     -3.89508023	     -0.97102644	      0.03473484	      0.14794486	      0.95952115	      0.08862643	     12.92213085	     -2.10244631	      1.64048446	     13.73806762	      0.23977451	     10.61098057	    -10.27458199	     -7.46709764	      6.59675686	      2.64637050	    -10.27191175	      2.33044153	      0.04067388	     10.85793700	      3.69943459	     -7.46709764	     12.43091178	      1.32738170	      6.43462160	     39.23751369	     12.42053815	     66.04773857	    123.84160011	    101.19769192	     27.37459169	      5.22025295	     51.41858639	    116.33769420	     82.11761298
      0.21666670	     -3.91207424	     -0.98546445	      0.03770447	      0.14815879	      0.95972936	      0.08829718	     12.91283570	     -2.09972046	      1.71085686	     13.67568608	      0.23868575	     10.51716276	    -10.28395053	     -7.48227881	      6.58176433	      2.65303142	    -10.30223044	      2.16895967	      0.03785549	     10.70239892	      3.79163347	     -7.48227881	     12.36512925	      1.34558340	      6.43563200	     39.26260887	     12.40416954	     66.17994807	    123.96368507	    101.14856880	     27.29993798	      5.17199190	     51.42656259	    116.48870808	     82.22548134
